<svg xmlns="http://www.w3.org/2000/svg" viewBox="0 0 32 32" width="32" height="32">
  <path fill="#40C4FF" d="M26.2,14.4c-2-2.3-5-3.8-8.3-3.8c-6,0-10.9,4.9-10.9,10.9c0,6,4.9,10.9,10.9,10.9c3.3,0,6.3-1.5,8.3-3.8l-3.3-2.8c-1.2,1.5-3,2.4-5,2.4c-3.6,0-6.5-2.9-6.5-6.5c0-3.6,2.9-6.5,6.5-6.5c2,0,3.8,0.9,5,2.4L26.2,14.4z"/>
  <path fill="#B0BEC5" d="M17.9,10.6c3.3,0,6.3,1.5,8.3,3.8l3.3-2.8c-2.8-3.3-6.9-5.4-11.6-5.4c-0.6,0-1.2,0-1.8,0.1L17.9,10.6z"/>
  <path fill="#B0BEC5" d="M7,14.4C5,16.7,3.8,19.7,3.8,22.9c0,0.6,0,1.2,0.1,1.8l4.4-4.4C8,19.1,7.6,17.9,7.6,16.5C7.6,15.8,7.8,15.1,8,14.4L7,14.4z"/>
  <path fill="#03A9F4" d="M17.9,4.2c-7.6,0-13.9,5.7-14.9,13.1l4.4,4.4C8,18.4,12.5,15,17.9,15c0.6,0,1.2,0,1.8,0.1l-1.8-4.4C17.9,10.6,17.9,10.6,17.9,4.2z"/>
</svg>